<?xml version="1.0" encoding="UTF-8" standalone="no" ?>
<!DOCTYPE svg PUBLIC "-//W3C//DTD SVG 1.1//EN" "http://www.w3.org/Graphics/SVG/1.1/DTD/svg11.dtd">
<svg xmlns="http://www.w3.org/2000/svg" xmlns:xlink="http://www.w3.org/1999/xlink" version="1.1" width="650" height="650" viewBox="0 0 650 650" xml:space="preserve">
<desc>Created with Fabric.js 4.6.0</desc>
<defs>
</defs>
<g transform="matrix(1 0 0 1 325 325)" id="NXEh4T7m9zBbelKjreiaE"  >
<path style="stroke: none; stroke-width: 1; stroke-dasharray: none; stroke-linecap: butt; stroke-dashoffset: 0; stroke-linejoin: miter; stroke-miterlimit: 4; fill: rgb(78,128,255); fill-rule: nonzero; opacity: 1;" vector-effect="non-scaling-stroke"  transform=" translate(-256, -295.61)" d="M 512.00001 443.40573 L 256.00001 591.21621 L 0.000009999999974752427 443.40573000000006 L 0.000009999999974752427 147.81047000000007 L 256.00001 -0.000009999999946330718 L 512.00001 147.81047000000007 z" stroke-linecap="round" />
</g>
<g transform="matrix(0.83 0 0 0.83 197 399.04)" id="TR0ynhzB6feuR5C52w5Sm"  >
<path style="stroke: none; stroke-width: 1; stroke-dasharray: none; stroke-linecap: butt; stroke-dashoffset: 0; stroke-linejoin: miter; stroke-miterlimit: 4; fill: rgb(43,74,151); fill-rule: nonzero; opacity: 1;" vector-effect="non-scaling-stroke"  transform=" translate(0, 0)" d="M 154.21487 -89.12857 L 154.21487 267.07484 L -154.21486000000002 88.95025999999999 L -154.21486000000002 -267.07484 z" stroke-linecap="round" />
</g>
<g transform="matrix(0.83 0 0 0.83 453 399.16)" id="fhgkMTG24xq6zIqL_Ik7T"  >
<path style="stroke: none; stroke-width: 1; stroke-dasharray: none; stroke-linecap: butt; stroke-dashoffset: 0; stroke-linejoin: miter; stroke-miterlimit: 4; fill: rgb(69,112,220); fill-rule: nonzero; opacity: 1;" vector-effect="non-scaling-stroke"  transform=" translate(0, 0)" d="M 154.21687 -266.93478 L 154.21687 88.77319 L -154.21687 266.93476999999996 L -154.21687 -89.26982000000004 z" stroke-linecap="round" />
</g>
<g transform="matrix(1 0 0 1 325.5 325.11)" id="QqMmjq0jgd_I0PV4Bm-FS"  >
<path style="stroke: none; stroke-width: 1; stroke-dasharray: none; stroke-linecap: butt; stroke-dashoffset: 0; stroke-linejoin: miter; stroke-miterlimit: 4; fill: rgb(0,0,0); fill-rule: nonzero; opacity: 1;" vector-effect="non-scaling-stroke"  transform=" translate(-200, -230.94)" d="M 400 346.41069 L 200 461.88759 L 0 346.41069 L 0 115.47689 L 200 -0.000010000000003174137 L 400 115.47689 z" stroke-linecap="round" />
</g>
</svg>